Coordinates
version=1
nRows=12
nColumns=42
inDegrees=yes

Units are S.I. units (second, meters, Newtons, ...)
If the header above contains a line with 'inDegrees', this indicates whether rotational values are in degrees (yes) or radians (no).

endheader
time	pelvis_tilt	pelvis_list	pelvis_rotation	pelvis_tx	pelvis_ty	pelvis_tz	hip_flexion_r	hip_adduction_r	hip_rotation_r	knee_angle_r	knee_adduction_r	knee_angle_r_beta	ankle_angle_r	subtalar_angle_r	mtp_angle_r	hip_flexion_l	hip_adduction_l	hip_rotation_l	knee_angle_l	knee_adduction_l	knee_angle_l_beta	ankle_angle_l	subtalar_angle_l	mtp_angle_l	lumbar_extension	lumbar_bending	lumbar_rotation	arm_flex_r	arm_add_r	arm_rot_r	elbow_flex_r	pro_sup_r	wrist_flex_r	wrist_dev_r	arm_flex_l	arm_add_l	arm_rot_l	elbow_flex_l	pro_sup_l	wrist_flex_l	wrist_dev_l
      0.75000000	     19.40006129	     -0.32623675	      0.56781468	     -1.20404782	      0.88303101	     -0.00590930	    -28.11239676	      4.24682094	    -10.69780937	     18.91386248	     -0.28389751	      0.33010917	     27.44496291	      6.23951853	     -8.06048275	      8.18570347	     -3.06128733	      7.81088092	     10.19262370	      4.41261356	      0.17789484	      2.39282647	    -11.44257225	     -8.06048275	    -37.48243931	     -0.13264724	      0.90566331	     23.21715355	     -9.20747590	     -0.26074924	     35.60887720	     90.00000001	      0.00000000	      0.00000000	      4.91195207	     -3.88954429	    -35.64134073	     32.73623172	     90.00000001	      0.00000000	      0.00000000
      0.76000000	     19.30679525	     -0.34830624	      0.52765982	     -1.19439572	      0.88154729	     -0.00712869	    -28.54089238	      4.08441149	    -11.23326072	     19.30961404	     -0.38880743	      0.33701634	     27.60699099	      6.71800694	     -8.04389312	      8.41013362	     -2.93319506	      8.29296648	     10.86138045	      4.65260133	      0.18956685	      1.71226927	    -13.10643237	     -8.04389312	    -37.22604820	     -0.10223723	      0.91173372	     23.20107970	     -9.20559283	     -0.05742492	     35.65113931	     90.00000001	      0.00000000	      0.00000000	      4.75927444	     -3.74667344	    -36.00937235	     32.53485555	     90.00000001	      0.00000000	      0.00000000
      0.77000000	     19.23549200	     -0.42632787	      0.40006786	     -1.18459125	      0.88017540	     -0.00822169	    -28.95289209	      3.87339421	    -11.51610170	     19.83007516	     -0.33822890	      0.34610010	     27.57982241	      6.86370879	     -8.03809941	      8.53307160	     -2.92545812	      8.57342377	     11.58663566	      4.99087894	      0.20222494	      1.63343451	    -13.59122295	     -8.03809941	    -36.98603341	     -0.07379608	      1.01987571	     23.15833070	     -9.17479010	     -0.07459454	     35.68344587	     90.00000001	      0.00000000	      0.00000000	      4.54123042	     -3.63484078	    -36.09974063	     32.39420174	     90.00000001	      0.00000000	      0.00000000
      0.78000000	     19.00600320	     -0.46198519	      0.38549539	     -1.17461228	      0.87849840	     -0.00958515	    -29.12083721	      3.67733471	    -12.18151370	     20.50277538	     -0.47003875	      0.35784094	     27.60685632	      7.33485679	     -8.02744863	      9.07746490	     -2.80742541	      8.68717049	     12.95715733	      5.32214296	      0.22614506	      1.40467169	    -14.51306825	     -8.02744863	    -36.55095302	     -0.02163801	      1.05070992	     23.00801612	     -9.16530079	     -0.16004526	     35.71060819	     90.00000001	      0.00000000	      0.00000000	      4.33390176	     -3.51092343	    -36.29303885	     32.18770547	     90.00000001	      0.00000000	      0.00000000
      0.79000000	     18.75560902	     -0.55218294	      0.17141243	     -1.16426512	      0.87710478	     -0.01068059	    -29.39581791	      3.53918879	    -12.14179101	     20.85845184	     -0.61803058	      0.36404866	     27.54137585	      7.38340482	     -8.02580647	      9.06052129	     -2.75455375	      8.99007465	     13.30663504	      5.47814714	      0.23224459	      1.31209941	    -14.37812355	     -8.02580647	    -36.06032330	     -0.02115616	      1.21507990	     22.79329175	     -9.13789718	     -0.17226672	     35.68153586	     90.00000001	      0.00000000	      0.00000000	      3.97328570	     -3.36464459	    -36.32222025	     32.09354714	     90.00000001	      0.00000000	      0.00000000
      0.80000000	     18.56432269	     -0.43993305	      0.28295060	     -1.15414120	      0.87544929	     -0.01238247	    -29.36414389	      3.06642651	    -13.88475065	     22.09141050	     -0.88502053	      0.38556785	     27.87188847	      9.68339214	     -7.99025544	      9.89187905	     -2.48885302	      9.12485616	     15.58926520	      6.05796946	      0.27208401	      0.91926346	    -15.36292155	     -7.99025544	    -35.65921597	     -0.06390627	      1.14683041	     22.55430387	     -9.07567534	     -0.66296079	     35.67116903	     90.00000001	      0.00000000	      0.00000000	      3.97449505	     -3.24293921	    -37.00815247	     31.78287401	     90.00000001	      0.00000000	      0.00000000
      0.81000000	     18.34406566	     -0.44447594	      0.20761512	     -1.14386773	      0.87415642	     -0.01377401	    -29.46998997	      2.74440202	    -14.11101281	     22.95367417	     -0.88711517	      0.40061719	     27.56932260	      9.76219427	     -7.98618045	     10.17702095	     -2.39811559	      9.62839983	     16.73889114	      6.57809042	      0.29214876	      0.67276985	    -15.48090536	     -7.98618045	    -35.23002283	     -0.09588116	      1.25588078	     22.24708572	     -9.08554209	     -0.77210437	     35.64454627	     90.00000001	      0.00000000	      0.00000000	      3.78287948	     -3.13432879	    -37.05381298	     31.63748769	     90.00000001	      0.00000000	      0.00000000
      0.82000000	     18.05130527	     -0.40907394	      0.23472430	     -1.13329947	      0.87275972	     -0.01539443	    -29.50467555	      2.43352321	    -14.63826813	     23.80271507	     -1.02059814	      0.41543575	     27.14399668	     10.08124224	     -7.97905348	     10.76025847	     -2.17074716	      9.78193802	     18.43269951	      6.92760007	      0.32171130	      0.44032138	    -15.75851480	     -7.97905348	    -34.67778980	     -0.10907540	      1.25693464	     21.83816198	     -9.04426726	     -1.07798266	     35.66429889	     90.00000001	      0.00000000	      0.00000000	      3.55889295	     -3.04034855	    -37.17262960	     31.43996221	     90.00000001	      0.00000000	      0.00000000
      0.83000000	     17.83442192	     -0.35268677	      0.15479454	     -1.12278059	      0.87174305	     -0.01683709	    -29.57320458	      2.06697893	    -14.76957449	     24.71446005	     -1.10604922	      0.43134870	     26.73822207	     10.31947032	     -7.97544250	     11.02589142	     -2.01122898	     10.30217599	     19.65506463	      7.47633724	      0.34304559	      0.26686868	    -15.74518562	     -7.97544250	    -34.23691513	     -0.21885909	      1.38290050	     21.41103689	     -9.03198574	     -1.30215914	     35.58517686	     90.00000001	      0.00000000	      0.00000000	      3.39110539	     -2.94850738	    -37.25289015	     31.30993891	     90.00000001	      0.00000000	      0.00000000
      0.84000000	     17.56853069	     -0.22956047	      0.24041624	     -1.11191167	      0.87063747	     -0.01864119	    -29.58547280	      1.68023656	    -15.39610339	     25.65916974	     -1.31936647	      0.44783700	     26.09297212	     10.89812395	     -7.96529899	     11.63556095	     -1.63603903	     10.28045908	     21.58253370	      7.69509905	      0.37668627	      0.25361892	    -15.81114107	     -7.96529899	    -33.68717538	     -0.30783467	      1.33439351	     20.86568574	     -8.93848408	     -1.96238324	     35.58367167	     90.00000001	      0.00000000	      0.00000000	      3.21362788	     -2.86758020	    -37.45528756	     31.10492133	     90.00000001	      0.00000000	      0.00000000
      0.85000000	     17.40860304	     -0.11419750	      0.20131770	     -1.10126764	      0.86999597	     -0.02016082	    -29.61869043	      1.17602315	    -15.54413940	     26.78537208	     -1.25112147	      0.46749293	     25.37888152	     11.12262991	     -7.96093232	     11.83726468	     -1.43365644	     10.79636142	     22.85620683	      8.29856067	      0.39891606	      0.32193549	    -15.80260041	     -7.96093232	    -33.31236588	     -0.47001811	      1.40563364	     20.36485522	     -8.86590078	     -2.28447120	     35.51028722	     90.00000001	      0.00000000	      0.00000000	      3.09495515	     -2.77958855	    -37.53631398	     30.96976582	     90.00000001	      0.00000000	      0.00000000
      0.86000000	     17.24413923	      0.08085397	      0.22490159	     -1.09038680	      0.86946939	     -0.02202388	    -29.62640399	      0.63726043	    -15.76546241	     27.92468401	     -1.31848095	      0.48737768	     24.38603458	     11.29245843	     -7.95614859	     12.09220525	     -1.03725537	     11.14522686	     24.30834504	      8.70335259	      0.42426066	      0.53616613	    -15.89485837	     -7.95614859	    -32.89944054	     -0.65436547	      1.39908439	     19.75564767	     -8.85167802	     -2.76717805	     35.45326538	     90.00000001	      0.00000000	      0.00000000	      2.92231136	     -2.73887654	    -37.64237922	     30.81458912	     90.00000001	      0.00000000	      0.00000000
